<svg width="60" height="60" viewBox="0 0 60 60" fill="none" xmlns="http://www.w3.org/2000/svg">
<rect x="28.1338" width="4.01905" height="15.215" rx="2.00953" fill="#A445ED"/>
<rect x="10.3379" y="52.4943" width="4.01905" height="15.215" rx="2.00953" transform="rotate(-135.654 10.3379 52.4943)" fill="#A445ED"/>
<rect x="1.90723" y="20.0299" width="4.01905" height="15.215" rx="2.00953" transform="rotate(-65.8248 1.90723 20.0299)" fill="#A445ED"/>
<rect x="43.0938" y="56.5018" width="4.01905" height="15.215" rx="2.00953" transform="rotate(158.521 43.0938 56.5018)" fill="#A445ED"/>
<rect x="57.0254" y="16.8656" width="4.01905" height="15.215" rx="2.00953" transform="rotate(70.0428 57.0254 16.8656)" fill="#A445ED"/>
<rect x="16.9375" y="2.93517" width="4.01905" height="15.215" rx="2.00953" transform="rotate(-21.9111 16.9375 2.93517)" fill="#A445ED"/>
<rect x="20.3965" y="58.2211" width="4.01905" height="15.215" rx="2.00953" transform="rotate(-157.565 20.3965 58.2211)" fill="#A445ED"/>
<rect x="52.4375" y="49.671" width="4.01905" height="15.215" rx="2.00953" transform="rotate(136.61 52.4375 49.671)" fill="#A445ED"/>
<rect y="31.4459" width="4.01905" height="15.215" rx="2.00953" transform="rotate(-87.7359 0 31.4459)" fill="#A445ED"/>
<rect x="32.1309" y="59.7683" width="4.01905" height="15.215" rx="2.00953" transform="rotate(179.096 32.1309 59.7683)" fill="#A445ED"/>
<rect x="50.4453" y="7.34367" width="4.01905" height="15.215" rx="2.00953" transform="rotate(48.1317 50.4453 7.34367)" fill="#A445ED"/>
<rect x="58.6543" y="39.599" width="4.01905" height="15.215" rx="2.00953" transform="rotate(113.271 58.6543 39.599)" fill="#A445ED"/>
<rect x="7.46387" y="10.0311" width="4.01905" height="15.215" rx="2.00953" transform="rotate(-45.2498 7.46387 10.0311)" fill="#A445ED"/>
<rect x="60" y="27.9112" width="4.01905" height="15.215" rx="2.00953" transform="rotate(90.6179 60 27.9112)" fill="#A445ED"/>
<rect x="2.59375" y="42.9946" width="4.01905" height="15.215" rx="2.00953" transform="rotate(-111.075 2.59375 42.9946)" fill="#A445ED"/>
<rect x="40.542" y="0.861221" width="4.01905" height="15.215" rx="2.00953" transform="rotate(24.793 40.542 0.861221)" fill="#A445ED"/>
</svg>
